PathFileType	4	(X/Y/Z)	C:\Users\WrightLab\Desktop\Jo\P1.2Trial32.trc
DataRate	CameraRate	NumFrames	NumMarkers	Units	OrigDataRate	OrigDataStartFrame	OrigNumFrames
100.00	100.00	       14	19	mm	100.00	544	       724
Frame#	Time	Headset_Front			Headset_Back			Headset_Left			Headset_Right			Left_Shoulder			Right_Shoulder			Sternum			C7			Left Elbow			Right Elbow			Left Wrist			Right Wrist			Left ASIS			Right ASIS			S2			Left Knee			Right Knee			Left Ankle			Right Ankle			
		X1	Y1	Z1	X2	Y2	Z2	X3	Y3	Z3	X4	Y4	Z4	X5	Y5	Z5	X6	Y6	Z6	X7	Y7	Z7	X8	Y8	Z8	X9	Y9	Z9	X10	Y10	Z10	X11	Y11	Z11	X12	Y12	Z12	X13	Y13	Z13	X14	Y14	Z14	X15	Y15	Z15	X16	Y16	Z16	X17	Y17	Z17	X18	Y18	Z18	X19	Y19	Z19	

544	5.430	24.85109	1403.14819	1834.24133	188.09650	1479.17090	1723.22546				-39.64590	1438.11499	1705.27429	337.00629	1263.37732	1645.52856	-87.45818	1261.76892	1605.02942	113.60892	1209.68018	1754.47290	133.82335	1319.57837	1517.97888	405.26233	979.99548	1587.85498	-166.59738	1013.88263	1591.29492	471.72073	770.61578	1687.31543	-192.47173	803.74274	1779.56396	241.00253	894.72656	1777.64709	-27.95473	879.81567	1726.38269	171.66136	913.23566	1481.91309	216.06955	516.23529	1880.25220	5.60135	440.30411	1637.21545	280.92767	229.72169	2000.27820				
545	5.440	23.15976	1401.59253	1840.49695	187.47856	1478.03955	1732.96484				-39.79269	1436.40198	1711.45740	336.98734	1262.04456	1656.34888	-86.97375	1259.94055	1612.83093	112.75584	1207.27600	1763.26782	135.48622	1317.88501	1527.62427	405.90619	978.70288	1599.02246	-165.54951	1011.78357	1598.56177	471.63834	768.65875	1698.23950	-192.89323	801.70685	1786.20276	239.22772	894.05206	1789.74890	-29.49358	878.82269	1735.01624	173.83827	911.40588	1492.41821	212.04636	515.63049	1891.35144	5.16551	438.94455	1642.53186	273.02832	227.93187	2009.17358				
546	5.450	21.04921	1401.32336	1850.67847	186.15587	1476.95642	1743.57458				-41.00572	1436.06421	1721.59680	337.20081	1260.63464	1667.82568	-86.32916	1258.19800	1619.74207	111.74827	1207.25513	1773.73535	136.95308	1316.60168	1536.38367	405.90320	977.67767	1611.93018	-164.49265	1009.87769	1605.76660	471.20062	767.20337	1709.95496	-194.13924	799.68018	1791.31409	237.96718	893.04742	1801.25098	-30.83397	877.99622	1743.47827	175.79535	909.73212	1502.24158	208.64627	513.61810	1902.74255	4.35703	437.92944	1648.09912	266.49777	224.21561	2018.59277				
547	5.460	18.69584	1399.51074	1857.93115	185.83496	1475.74536	1752.95642				-41.02062	1433.40430	1727.34399	337.33121	1259.74939	1679.73547	-86.03339	1256.55823	1627.10339	110.64246	1206.19348	1784.22607	138.85777	1315.14246	1546.66370	407.92886	976.58759	1623.68823	-163.44005	1008.56659	1607.71460	470.97797	765.29974	1721.29333	-195.23628	797.19745	1796.57983	236.56502	891.81879	1812.50562	-31.63825	875.89429	1750.98254	177.02052	908.14917	1512.98523	205.08832	511.76767	1913.89673	3.79287	437.49606	1655.61731	262.56894	216.27924	2025.00073				
548	5.470	17.56855	1398.88892	1866.76135	184.55792	1475.30908	1762.79492				-41.82221	1433.78406	1735.42004	337.43411	1258.87195	1692.14697	-85.58610	1255.76514	1634.51929	109.27502	1205.31653	1793.05481	140.32671	1313.76965	1556.25232	407.94650	976.19586	1635.49695	-161.58577	1006.59698	1616.99536	470.20822	764.51685	1733.77856	-196.09483	794.22455	1801.58667	235.22664	891.02832	1823.58655	-33.12226	875.22815	1760.48499	179.10864	907.30475	1523.32288	201.49887	510.59225	1926.67505	2.49149	436.30756	1661.95215	258.54147	208.75401	2029.61255				
549	5.480	15.02053	1397.92542	1873.60706	183.07491	1474.45471	1773.58276				-42.03650	1431.64758	1743.04858	337.66745	1257.72095	1704.49817	-84.40088	1254.68176	1641.42847	108.28995	1203.95544	1802.64343	141.88208	1312.51831	1566.13562	408.90741	975.61444	1650.29224	-160.12927	1005.50153	1619.48096	469.97150	763.00409	1746.83569	-197.20386	791.70386	1805.92810	233.68796	889.95685	1835.56262	-34.48756	875.20197	1770.01208	180.33405	905.90979	1534.83716	198.58051	507.48898	1938.13110	1.83460	436.40375	1669.78882	255.39719	200.63351	2033.47034				
550	5.490	12.89112	1397.18494	1882.95557	182.42390	1473.89856	1783.16040				-43.21871	1431.13708	1749.94336	337.74164	1257.14111	1716.25085	-83.11596	1253.75964	1648.68530	107.18786	1204.10938	1813.15833	143.38748	1311.63049	1576.62695	408.51624	974.24829	1659.93518	-158.17789	1003.94958	1629.77856	468.71616	762.25055	1759.34094	-198.22365	789.00690	1808.86841	232.30327	889.24304	1847.33423	-35.03218	873.99292	1778.11047	181.80258	904.54950	1545.84924	195.69055	504.42526	1949.95435	1.07583	434.95560	1676.99390	253.00586	194.25330	2037.03369				
551	5.500	10.56546	1396.51123	1890.32947	181.38091	1473.39124	1792.81226				-43.72806	1430.47070	1758.86218	337.77774	1256.50134	1728.77625	-82.16670	1252.58972	1654.65344	105.97597	1204.90161	1824.30359	145.24643	1310.85144	1586.19446	409.06802	973.66943	1674.69885	-156.14325	1002.61670	1634.45605	467.81268	761.27423	1772.67822	-199.76115	785.81708	1811.34167	230.59225	888.66272	1859.55701	-36.17012	873.91913	1787.51270	183.09274	903.30255	1558.10950	193.22319	501.19287	1961.21252	0.73033	435.08237	1685.18311	252.34894	193.40489	2045.76392				
552	5.510	7.76774	1395.62952	1897.89233	179.58569	1473.43958	1803.31543							337.74173	1256.48157	1740.36316	-81.27718	1251.84021	1661.44275	104.86816	1204.12231	1834.04004	147.13614	1310.16003	1596.77039	409.53546	973.11383	1688.31592	-154.05794	1001.67291	1639.55518	466.60510	761.30530	1786.40833	-200.95424	783.19824	1814.23950	228.42957	888.95441	1872.04333	-37.97454	873.71045	1797.77417	184.08252	902.53644	1568.55334	190.48582	498.16153	1971.46155	0.10400	434.56866	1692.85046	249.97099	192.19180	2054.07031				
553	5.520	5.47581	1396.53577	1907.08032	178.45239	1473.93335	1812.92578	-45.14625	1429.84302	1772.62000				338.02048	1256.54810	1754.02686	-80.17503	1251.64575	1668.89929	103.49160	1204.67896	1843.42224	149.14105	1309.81226	1606.29395	409.08698	973.87042	1699.66162	-152.16815	1000.97858	1647.08069	464.74435	761.17822	1800.00586	-202.41650	780.65747	1815.91992	226.31787	889.03882	1884.46179	-38.57987	873.68756	1806.25049	185.11469	901.18652	1581.38062	188.10754	496.08597	1981.40186	-1.00080	433.33142	1699.86292	249.99542	190.69154	2062.19922				
554	5.530	2.40018	1396.54907	1913.97571	177.04472	1474.95813	1823.60901							337.44751	1256.96851	1765.92395	-79.42509	1252.22437	1676.82593	101.93717	1205.36938	1853.44360	151.19386	1310.12573	1616.28796	410.81238	972.73810	1717.50354	-150.06993	1001.03107	1650.38611	463.57782	760.60065	1814.05408	-203.72316	778.22131	1816.90308	223.83914	890.33722	1897.24951	-39.60571	874.67944	1815.27356	186.16032	901.00055	1594.24390	185.98244	495.69901	1990.34021	-2.19010	434.20853	1708.97644	249.45776	188.54803	2070.71729				
555	5.540	-0.38356	1397.44507	1921.08826	175.20093	1476.19141	1834.91272							337.51074	1257.36292	1779.18042	-78.26344	1252.94531	1682.92444	100.47453	1207.08533	1864.26221	152.70598	1310.32764	1627.35022	410.05505	973.21918	1728.37549	-147.90276	1001.43665	1655.28320	462.83966	761.20752	1830.06287	-205.35858	776.14056	1817.05713	221.43706	891.18268	1910.41089	-41.22137	875.88312	1824.86572	186.94838	901.53406	1606.12878	184.34981	495.78696	1998.75879	-3.78368	432.36667	1716.74792	248.72205	187.50157	2079.49976				
556	5.550	-3.61760	1399.05090	1929.95715	173.62560	1477.50720	1845.50549							337.08365	1258.50635	1792.73828	-77.00565	1252.87634	1688.50867	98.85635	1208.14661	1874.46973	154.48914	1311.66187	1637.34900	410.53293	974.14459	1743.77917	-145.43570	1001.98859	1660.64587	461.35135	761.91174	1845.37292	-206.69466	774.15051	1816.75159	218.99342	893.01990	1922.88110	-42.35173	876.71802	1834.30884	188.22571	902.28918	1619.15710	182.93703	496.58017	2007.82837	-4.17710	433.38358	1727.63574	248.08229	184.55954	2085.98315				
557	5.560	-6.76669	1400.47424	1937.71643	171.80527	1478.99805	1855.31580							336.64841	1259.59204	1805.11096	-76.18774	1254.88367	1696.31079	96.97514	1209.54688	1882.98816				409.71683	974.64948	1756.59631	-142.82574	1002.69568	1664.50684	459.30652	762.60468	1860.01917	-207.77528	772.85260	1816.58179	216.20010	895.13501	1936.44543	-43.73302	878.47034	1843.15125	187.96327	903.43237	1631.35461	182.13414	498.03488	2017.60059	-6.41993	433.77997	1737.09216	248.12936	179.87158	2090.83105				
